<mxfile host="app.diagrams.net" modified="2021-07-31T11:47:23.599Z" agent="5.0 (Windows NT 10.0; Win64; x64) AppleWebKit/537.36 (KHTML, like Gecko) Chrome/92.0.4515.107 Safari/537.36" etag="K_B4KqIrhIqu2byuBfev" version="14.9.3" type="github">
  <diagram id="C5RBs43oDa-KdzZeNtuy" name="Page-1">
    <mxGraphModel dx="1892" dy="456" grid="1" gridSize="10" guides="1" tooltips="1" connect="1" arrows="1" fold="1" page="1" pageScale="1" pageWidth="827" pageHeight="1169" math="0" shadow="0">
      <root>
        <mxCell id="WIyWlLk6GJQsqaUBKTNV-0" />
        <mxCell id="WIyWlLk6GJQsqaUBKTNV-1" parent="WIyWlLk6GJQsqaUBKTNV-0" />
        <mxCell id="qm4LMOH7RYF-iE_G7qKz-7" value="" style="edgeStyle=orthogonalEdgeStyle;rounded=0;orthogonalLoop=1;jettySize=auto;html=1;" edge="1" parent="WIyWlLk6GJQsqaUBKTNV-1" source="qm4LMOH7RYF-iE_G7qKz-0" target="qm4LMOH7RYF-iE_G7qKz-2">
          <mxGeometry relative="1" as="geometry" />
        </mxCell>
        <mxCell id="qm4LMOH7RYF-iE_G7qKz-0" value="오픈 뱅킹 서비스" style="rounded=1;whiteSpace=wrap;html=1;" vertex="1" parent="WIyWlLk6GJQsqaUBKTNV-1">
          <mxGeometry x="120" y="180" width="120" height="50" as="geometry" />
        </mxCell>
        <mxCell id="qm4LMOH7RYF-iE_G7qKz-11" value="" style="edgeStyle=orthogonalEdgeStyle;rounded=0;orthogonalLoop=1;jettySize=auto;html=1;" edge="1" parent="WIyWlLk6GJQsqaUBKTNV-1" source="qm4LMOH7RYF-iE_G7qKz-2" target="qm4LMOH7RYF-iE_G7qKz-10">
          <mxGeometry relative="1" as="geometry" />
        </mxCell>
        <mxCell id="qm4LMOH7RYF-iE_G7qKz-18" value="" style="edgeStyle=orthogonalEdgeStyle;rounded=0;orthogonalLoop=1;jettySize=auto;html=1;" edge="1" parent="WIyWlLk6GJQsqaUBKTNV-1" source="qm4LMOH7RYF-iE_G7qKz-2" target="qm4LMOH7RYF-iE_G7qKz-17">
          <mxGeometry relative="1" as="geometry" />
        </mxCell>
        <mxCell id="qm4LMOH7RYF-iE_G7qKz-2" value="오픈뱅킹 &lt;br&gt;약관 동의" style="rhombus;whiteSpace=wrap;html=1;" vertex="1" parent="WIyWlLk6GJQsqaUBKTNV-1">
          <mxGeometry x="120" y="280" width="120" height="90" as="geometry" />
        </mxCell>
        <mxCell id="qm4LMOH7RYF-iE_G7qKz-20" value="" style="edgeStyle=orthogonalEdgeStyle;rounded=0;orthogonalLoop=1;jettySize=auto;html=1;" edge="1" parent="WIyWlLk6GJQsqaUBKTNV-1" source="qm4LMOH7RYF-iE_G7qKz-10" target="qm4LMOH7RYF-iE_G7qKz-19">
          <mxGeometry relative="1" as="geometry" />
        </mxCell>
        <mxCell id="qm4LMOH7RYF-iE_G7qKz-10" value="오픈뱅킹 계좌조회" style="rounded=1;whiteSpace=wrap;html=1;" vertex="1" parent="WIyWlLk6GJQsqaUBKTNV-1">
          <mxGeometry x="120" y="410" width="120" height="50" as="geometry" />
        </mxCell>
        <mxCell id="qm4LMOH7RYF-iE_G7qKz-17" value="index화면" style="rounded=1;whiteSpace=wrap;html=1;" vertex="1" parent="WIyWlLk6GJQsqaUBKTNV-1">
          <mxGeometry x="-60" y="300" width="120" height="50" as="geometry" />
        </mxCell>
        <mxCell id="qm4LMOH7RYF-iE_G7qKz-24" value="" style="edgeStyle=orthogonalEdgeStyle;rounded=0;orthogonalLoop=1;jettySize=auto;html=1;" edge="1" parent="WIyWlLk6GJQsqaUBKTNV-1" source="qm4LMOH7RYF-iE_G7qKz-19" target="qm4LMOH7RYF-iE_G7qKz-23">
          <mxGeometry relative="1" as="geometry" />
        </mxCell>
        <mxCell id="qm4LMOH7RYF-iE_G7qKz-19" value="출금 계좌 선택" style="rounded=1;whiteSpace=wrap;html=1;" vertex="1" parent="WIyWlLk6GJQsqaUBKTNV-1">
          <mxGeometry x="120" y="500" width="120" height="50" as="geometry" />
        </mxCell>
        <mxCell id="qm4LMOH7RYF-iE_G7qKz-23" value="은행코드&lt;br&gt;SSN" style="shape=parallelogram;perimeter=parallelogramPerimeter;whiteSpace=wrap;html=1;fixedSize=1;rounded=1;" vertex="1" parent="WIyWlLk6GJQsqaUBKTNV-1">
          <mxGeometry x="120" y="594" width="120" height="60" as="geometry" />
        </mxCell>
        <mxCell id="qm4LMOH7RYF-iE_G7qKz-25" value="JB Morgan" style="shape=cylinder3;whiteSpace=wrap;html=1;boundedLbl=1;backgroundOutline=1;size=15;" vertex="1" parent="WIyWlLk6GJQsqaUBKTNV-1">
          <mxGeometry x="110" y="706" width="60" height="80" as="geometry" />
        </mxCell>
        <mxCell id="qm4LMOH7RYF-iE_G7qKz-26" value="SeJin" style="shape=cylinder3;whiteSpace=wrap;html=1;boundedLbl=1;backgroundOutline=1;size=15;" vertex="1" parent="WIyWlLk6GJQsqaUBKTNV-1">
          <mxGeometry x="200" y="706" width="60" height="80" as="geometry" />
        </mxCell>
        <mxCell id="qm4LMOH7RYF-iE_G7qKz-27" value="DonJo" style="shape=cylinder3;whiteSpace=wrap;html=1;boundedLbl=1;backgroundOutline=1;size=15;" vertex="1" parent="WIyWlLk6GJQsqaUBKTNV-1">
          <mxGeometry x="290" y="706" width="60" height="80" as="geometry" />
        </mxCell>
        <mxCell id="qm4LMOH7RYF-iE_G7qKz-28" value="YG Bank" style="shape=cylinder3;whiteSpace=wrap;html=1;boundedLbl=1;backgroundOutline=1;size=15;" vertex="1" parent="WIyWlLk6GJQsqaUBKTNV-1">
          <mxGeometry x="380" y="706" width="60" height="80" as="geometry" />
        </mxCell>
        <mxCell id="qm4LMOH7RYF-iE_G7qKz-29" value="" style="endArrow=classic;html=1;" edge="1" parent="WIyWlLk6GJQsqaUBKTNV-1">
          <mxGeometry width="50" height="50" relative="1" as="geometry">
            <mxPoint x="179" y="654" as="sourcePoint" />
            <mxPoint x="179" y="704" as="targetPoint" />
          </mxGeometry>
        </mxCell>
        <mxCell id="qm4LMOH7RYF-iE_G7qKz-42" value="" style="edgeStyle=orthogonalEdgeStyle;rounded=0;orthogonalLoop=1;jettySize=auto;html=1;" edge="1" parent="WIyWlLk6GJQsqaUBKTNV-1" source="qm4LMOH7RYF-iE_G7qKz-31" target="qm4LMOH7RYF-iE_G7qKz-35">
          <mxGeometry relative="1" as="geometry" />
        </mxCell>
        <mxCell id="qm4LMOH7RYF-iE_G7qKz-31" value="입금 계좌 정보" style="shape=parallelogram;perimeter=parallelogramPerimeter;whiteSpace=wrap;html=1;fixedSize=1;rounded=1;" vertex="1" parent="WIyWlLk6GJQsqaUBKTNV-1">
          <mxGeometry x="290" y="594" width="120" height="60" as="geometry" />
        </mxCell>
        <mxCell id="qm4LMOH7RYF-iE_G7qKz-32" value="" style="endArrow=classic;html=1;entryX=0.422;entryY=1.017;entryDx=0;entryDy=0;entryPerimeter=0;" edge="1" parent="WIyWlLk6GJQsqaUBKTNV-1" target="qm4LMOH7RYF-iE_G7qKz-31">
          <mxGeometry width="50" height="50" relative="1" as="geometry">
            <mxPoint x="340" y="704" as="sourcePoint" />
            <mxPoint x="390" y="654" as="targetPoint" />
          </mxGeometry>
        </mxCell>
        <mxCell id="qm4LMOH7RYF-iE_G7qKz-47" value="" style="edgeStyle=orthogonalEdgeStyle;rounded=0;orthogonalLoop=1;jettySize=auto;html=1;" edge="1" parent="WIyWlLk6GJQsqaUBKTNV-1" source="qm4LMOH7RYF-iE_G7qKz-35" target="qm4LMOH7RYF-iE_G7qKz-45">
          <mxGeometry relative="1" as="geometry" />
        </mxCell>
        <mxCell id="qm4LMOH7RYF-iE_G7qKz-54" style="edgeStyle=orthogonalEdgeStyle;rounded=0;orthogonalLoop=1;jettySize=auto;html=1;entryX=1;entryY=0.5;entryDx=0;entryDy=0;" edge="1" parent="WIyWlLk6GJQsqaUBKTNV-1" source="qm4LMOH7RYF-iE_G7qKz-35" target="qm4LMOH7RYF-iE_G7qKz-10">
          <mxGeometry relative="1" as="geometry">
            <Array as="points">
              <mxPoint x="350" y="435" />
            </Array>
          </mxGeometry>
        </mxCell>
        <mxCell id="qm4LMOH7RYF-iE_G7qKz-35" value="계좌 존재 여부" style="rhombus;whiteSpace=wrap;html=1;" vertex="1" parent="WIyWlLk6GJQsqaUBKTNV-1">
          <mxGeometry x="295" y="485" width="110" height="80" as="geometry" />
        </mxCell>
        <mxCell id="qm4LMOH7RYF-iE_G7qKz-40" value="No" style="text;html=1;strokeColor=none;fillColor=none;align=center;verticalAlign=middle;whiteSpace=wrap;rounded=0;" vertex="1" parent="WIyWlLk6GJQsqaUBKTNV-1">
          <mxGeometry x="70" y="300" width="40" height="20" as="geometry" />
        </mxCell>
        <mxCell id="qm4LMOH7RYF-iE_G7qKz-41" value="Yes" style="text;html=1;strokeColor=none;fillColor=none;align=center;verticalAlign=middle;whiteSpace=wrap;rounded=0;" vertex="1" parent="WIyWlLk6GJQsqaUBKTNV-1">
          <mxGeometry x="180" y="370" width="40" height="20" as="geometry" />
        </mxCell>
        <mxCell id="qm4LMOH7RYF-iE_G7qKz-44" value="No" style="text;html=1;strokeColor=none;fillColor=none;align=center;verticalAlign=middle;whiteSpace=wrap;rounded=0;" vertex="1" parent="WIyWlLk6GJQsqaUBKTNV-1">
          <mxGeometry x="350" y="465" width="40" height="20" as="geometry" />
        </mxCell>
        <mxCell id="qm4LMOH7RYF-iE_G7qKz-48" value="" style="edgeStyle=orthogonalEdgeStyle;rounded=0;orthogonalLoop=1;jettySize=auto;html=1;" edge="1" parent="WIyWlLk6GJQsqaUBKTNV-1" source="qm4LMOH7RYF-iE_G7qKz-45" target="qm4LMOH7RYF-iE_G7qKz-46">
          <mxGeometry relative="1" as="geometry" />
        </mxCell>
        <mxCell id="qm4LMOH7RYF-iE_G7qKz-56" value="" style="edgeStyle=orthogonalEdgeStyle;rounded=0;orthogonalLoop=1;jettySize=auto;html=1;entryX=1;entryY=0.5;entryDx=0;entryDy=0;" edge="1" parent="WIyWlLk6GJQsqaUBKTNV-1" source="qm4LMOH7RYF-iE_G7qKz-45" target="qm4LMOH7RYF-iE_G7qKz-10">
          <mxGeometry relative="1" as="geometry">
            <mxPoint x="495" y="404.9999999999999" as="targetPoint" />
            <Array as="points">
              <mxPoint x="495" y="435" />
            </Array>
          </mxGeometry>
        </mxCell>
        <mxCell id="qm4LMOH7RYF-iE_G7qKz-45" value="잔액 유무" style="rhombus;whiteSpace=wrap;html=1;" vertex="1" parent="WIyWlLk6GJQsqaUBKTNV-1">
          <mxGeometry x="440" y="485" width="110" height="80" as="geometry" />
        </mxCell>
        <mxCell id="qm4LMOH7RYF-iE_G7qKz-53" value="" style="edgeStyle=orthogonalEdgeStyle;rounded=0;orthogonalLoop=1;jettySize=auto;html=1;" edge="1" parent="WIyWlLk6GJQsqaUBKTNV-1" source="qm4LMOH7RYF-iE_G7qKz-46" target="qm4LMOH7RYF-iE_G7qKz-52">
          <mxGeometry relative="1" as="geometry" />
        </mxCell>
        <mxCell id="qm4LMOH7RYF-iE_G7qKz-57" style="edgeStyle=orthogonalEdgeStyle;rounded=0;orthogonalLoop=1;jettySize=auto;html=1;entryX=1;entryY=0.5;entryDx=0;entryDy=0;" edge="1" parent="WIyWlLk6GJQsqaUBKTNV-1" source="qm4LMOH7RYF-iE_G7qKz-46" target="qm4LMOH7RYF-iE_G7qKz-10">
          <mxGeometry relative="1" as="geometry">
            <Array as="points">
              <mxPoint x="635" y="435" />
            </Array>
          </mxGeometry>
        </mxCell>
        <mxCell id="qm4LMOH7RYF-iE_G7qKz-46" value="계좌 비밀번호&lt;br&gt;일치 여부" style="rhombus;whiteSpace=wrap;html=1;" vertex="1" parent="WIyWlLk6GJQsqaUBKTNV-1">
          <mxGeometry x="580" y="485" width="110" height="80" as="geometry" />
        </mxCell>
        <mxCell id="qm4LMOH7RYF-iE_G7qKz-49" value="Yes" style="text;html=1;strokeColor=none;fillColor=none;align=center;verticalAlign=middle;whiteSpace=wrap;rounded=0;" vertex="1" parent="WIyWlLk6GJQsqaUBKTNV-1">
          <mxGeometry x="400" y="500" width="40" height="20" as="geometry" />
        </mxCell>
        <mxCell id="qm4LMOH7RYF-iE_G7qKz-50" value="Yes" style="text;html=1;strokeColor=none;fillColor=none;align=center;verticalAlign=middle;whiteSpace=wrap;rounded=0;" vertex="1" parent="WIyWlLk6GJQsqaUBKTNV-1">
          <mxGeometry x="540" y="500" width="40" height="20" as="geometry" />
        </mxCell>
        <mxCell id="qm4LMOH7RYF-iE_G7qKz-52" value="\ㅇㄹ" style="rounded=1;whiteSpace=wrap;html=1;" vertex="1" parent="WIyWlLk6GJQsqaUBKTNV-1">
          <mxGeometry x="575" y="594" width="120" height="50" as="geometry" />
        </mxCell>
        <mxCell id="qm4LMOH7RYF-iE_G7qKz-58" value="No" style="text;html=1;strokeColor=none;fillColor=none;align=center;verticalAlign=middle;whiteSpace=wrap;rounded=0;" vertex="1" parent="WIyWlLk6GJQsqaUBKTNV-1">
          <mxGeometry x="500" y="465" width="40" height="20" as="geometry" />
        </mxCell>
        <mxCell id="qm4LMOH7RYF-iE_G7qKz-59" value="No" style="text;html=1;strokeColor=none;fillColor=none;align=center;verticalAlign=middle;whiteSpace=wrap;rounded=0;" vertex="1" parent="WIyWlLk6GJQsqaUBKTNV-1">
          <mxGeometry x="640" y="465" width="40" height="20" as="geometry" />
        </mxCell>
      </root>
    </mxGraphModel>
  </diagram>
</mxfile>
